<?xml version="1.0" encoding="utf-8"?>
<!-- Generator: Adobe Illustrator 15.1.0, SVG Export Plug-In . SVG Version: 6.00 Build 0)  -->
<!DOCTYPE svg PUBLIC "-//W3C//DTD SVG 1.1//EN" "http://www.w3.org/Graphics/SVG/1.1/DTD/svg11.dtd">
<svg version="1.1" id="Layer_1" xmlns="http://www.w3.org/2000/svg" xmlns:xlink="http://www.w3.org/1999/xlink" x="0px" y="0px"
	 width="1280px" height="1208px" viewBox="0 664.5 1280 1208" enable-background="new 0 664.5 1280 1208" xml:space="preserve">
<g>
	<g transform="translate(0.000000,442.000000) scale(0.100000,-0.100000)">
		<path fill="#666666" d="M12184.452-3086.816C10577.284-4093.789,9048.446-5260,7553.916-6617.314
			C6703.867-7391.455,5588.994-8525.79,4849.15-9375.966c-171.514-195.967-318.467-357.637-328.32-360.195
			c-9.854-4.863-698.242,526.719-1531.26,1180.928L1475.454-7369.316l-519.292-419.063
			c-286.724-230.273-588.032-475.273-673.794-543.876l-154.37-122.5l450.82-455.674
			c247.422-249.854,1428.349-1447.939,2626.426-2665.605c1195.654-1217.656,2182.92-2205.049,2192.773-2192.764
			c9.854,9.727,78.467,156.797,149.502,325.889c71.035,169.082,257.285,561.025,414.082,869.756
			c1151.357,2276.094,3045.244,4971.005,5017.47,7139.326c154.365,169.092,597.764,624.775,987.266,1011.846l705.664,705.664
			l-159.229,360.186c-88.203,198.408-161.67,362.627-164.102,365.059C12346.112-2988.769,12272.636-3032.929,12184.452-3086.816z"/>
	</g>
</g>
</svg>
