<?xml version="1.0" encoding="utf-8"?>
<!-- Generator: Adobe Illustrator 15.1.0, SVG Export Plug-In . SVG Version: 6.00 Build 0)  -->
<!DOCTYPE svg PUBLIC "-//W3C//DTD SVG 1.1//EN" "http://www.w3.org/Graphics/SVG/1.1/DTD/svg11.dtd">
<svg version="1.1" id="Layer_1" xmlns="http://www.w3.org/2000/svg" xmlns:xlink="http://www.w3.org/1999/xlink" x="0px" y="0px"
	 width="18px" height="13px" viewBox="0 0 18 13" enable-background="new 0 0 18 13" xml:space="preserve">
<title>Icon</title>
<desc>Created with Sketch.</desc>
<g id="Page-1">
	<g id="Ecommerce" transform="translate(-844.000000, -3389.000000)">
		<g id="Product-Card-_x23_1" transform="translate(150.000000, 2942.000000)">
			<g id="Color" transform="translate(683.000000, 399.000000)">
				<path id="Icon" fill="#2B2B2B" d="M28.844,48.922l-0.748-0.764c-0.207-0.211-0.543-0.211-0.75,0l-9.67,9.862
					c-0.208,0.212-0.543,0.212-0.75,0l-4.271-4.355c-0.208-0.211-0.543-0.211-0.749,0l-0.75,0.765c-0.207,0.211-0.207,0.554,0,0.765
					l5.382,5.488c0.414,0.422,1.084,0.422,1.498,0l10.809-10.996C29.052,49.477,29.053,49.134,28.844,48.922"/>
			</g>
		</g>
	</g>
</g>
</svg>
