<?xml version="1.0" encoding="utf-8"?>
<!-- Generator: Adobe Illustrator 15.1.0, SVG Export Plug-In . SVG Version: 6.00 Build 0)  -->
<!DOCTYPE svg PUBLIC "-//W3C//DTD SVG 1.1//EN" "http://www.w3.org/Graphics/SVG/1.1/DTD/svg11.dtd">
<svg version="1.1" id="Layer_1" xmlns="http://www.w3.org/2000/svg" xmlns:xlink="http://www.w3.org/1999/xlink" x="0px" y="0px"
	 width="87.5px" height="87.5px" viewBox="0 -59.5 87.5 87.5" enable-background="new 0 -59.5 87.5 87.5" xml:space="preserve">
<g>
	<path fill="#757575" d="M79.226-45.089H8.548c-2.795,0-5.03,2.254-5.048,5.048l0,0v0.054V7.505v0.054l0,0
		c0.036,2.794,2.253,5.048,5.048,5.048h70.677c2.813,0,5.049-2.291,5.049-5.103l0,0v-47.492l0,0
		C84.274-42.799,82.038-45.089,79.226-45.089z M11.632-39.32h64.493c1.244,0,2.182,0.92,2.362,2.165v3.606H9.27v-3.66
		C9.45-38.436,10.406-39.32,11.632-39.32z M76.143,6.838H11.632c-1.244,0-2.182-0.884-2.362-2.11v-20.968h69.235V4.674
		C78.323,5.918,77.369,6.838,76.143,6.838z"/>
	<rect x="15.039" y="-7.586" fill="#757575" width="34.617" height="2.884"/>
	<rect x="15.039" y="-1.817" fill="#757575" width="17.31" height="2.884"/>
	<rect x="61.196" y="-7.586" fill="#757575" width="11.539" height="8.653"/>
</g>
</svg>
